# xmcd CD database file
#
# Track frame offsets:
#	150
#	20761
#	50422
#	67636
#	94283
#	122696
#	139551
#	155770
#	179230
#	205043
#	226175
#
# Disc length: 3274 seconds
#
# Revision: 0
# Processed by: cddbd v1.5.1PL0 Copyright (c) Steve Scherf et al.
# Submitted via: CDex 1.51
#
DISCID=940cc80b
DTITLE=Ella and Louis - Ella and Louis
DYEAR=1900
DGENRE=Jazz
TTITLE0=Can't We Be Friends
TTITLE1=Isn't This A Lovely Day
TTITLE2=Moonlight In Vermont
TTITLE3=They Can't Take That Away From Me
TTITLE4=Under A Blanket Of Blue
TTITLE5=Tenderly
TTITLE6=A Foggy Day
TTITLE7=Stars Fell On Alabama
TTITLE8=Cheek To Cheek
TTITLE9=The Nearness Of You
TTITLE10=April In Paris
EXTD=
EXTT0=
EXTT1=
EXTT2=
EXTT3=
EXTT4=
EXTT5=
EXTT6=
EXTT7=
EXTT8=
EXTT9=
EXTT10=
PLAYORDER=
